    <svg
      xmlns="http://www.w3.org/2000/svg"
      width="1320"
      height="1333.152"
      version="1.1"
    >
      <g transform="translate(1348.571 197.071)">
        <path
          fill="#4F46E5"
          d="M-308.907 300.593c-59.042 61.39-119.634 122.34-170.858 190.654 11.667 22.814 32.903 43.216 54.347 57.246 61.15-39.414 114.513-91.083 170.731-136.56 7.258-8.814 28.403-17.687 15.51-30.892-19.074-30.27-41.422-59.27-68.596-81.583l-1.134 1.135zm-212.217 167.2c-.418.13.174.234 0 0zm88.518-288.629c-52.013 54.399-94.229 120.332-141.688 179.747-13.102 20.35-33.878 40.119-41.275 62.101 29.376 19.94 62.707 37.097 96.589 46.655 48.189-39.449 85.984-91.83 129.243-137.263 15.437-20.608 40.372-41.226 49.054-64.109-26.781-31.874-56.156-64.09-90.662-88.014l-1.26.883zm-434.142-49.177c-39.989 39.466-67.558 91.893-102.7 136.63-28.3 42.094-61.723 82.052-86.315 126.024 8.934 38.11 39.979 67.465 59.284 100.83 63.012 94.94 130.647 187.342 187.86 285.649 1.984 53.283-15.419 105.522-20.218 158.49-7.338 61.39-22.613 123.515-24.545 184.612 77.16 6.614 155.342 3.107 232.77 1.135 12.933-5.413 4.21-26.22 9.235-37.051 8.522-101.914 20.82-203.89 25.44-305.925-12.53-2.786-40.536-4.014-31.775-24.21 7.624-16 41.923-19.228 32.532-41.233-43.618-84.893-95-167.386-143.77-250.045-11.325-22.842-28.914-41.14-54.126-47.48-24.332-13.613-57.78-14.136-77.115-35.111-6.475-25.552 30.488-23.825 44.133-32.785-.584-21.775-25.066-44.3-12.736-65.317 20.36-9.556 35.743 18.716 50.644 28.192 31.035 34.648 81.152 17.213 120.592 13.672 16.827-5.305 45.56 0 46.15-24.841 3.603-21.905 16.384-56.774-12.609-67.082-79.4-36.507-160.028-75.646-242.731-104.154zm295.187-80.574c-32.368 31.85-53.652 74.577-78.106 112.86-9.09 9.384-6.085 17.168 5.727 21.304 24.644 17.627 70.528 26.017 69.226 64.56.278 15.626-5.243 35.339-2.774 48.42 40.814-46.108 80.238-94.535 112.98-146.395-32.033-36.285-65.191-73.492-104.91-100.623-.683-.09-1.448-.343-2.144-.126zm-135.93-93.436c-26.068 11.505-38.31 43.386-57.499 63.804-18.087 27.892-43.731 52.018-56.364 82.718 14.508 14.543 41.28 18.264 60.02 29.127 20.972 7.631 42.638 20.82 63.678 24.715 30.784-38.6 59.914-80.344 82.844-124.203-3.166-17.19-24.747-26.281-36.037-38.74-18.053-11.292-34.626-34.752-56.642-37.42zm485.182 508.289c-.418.133.174.234 0 0zm-555.355-209.337c-.418.133.173.234 0 0zm-557.47-442c-1.157-.008-2.113.435-2.775 1.261-.815 1.018-.903 1.683-.125 3.405 2.88 6.384 19.113 35.657 57.498 104.027l27.363 48.799 209.568 168.462c42.03 33.793 57.613 46.31 85.366 68.595 2.901-4.132 5.762-8.257 8.7-12.357-21.104-16.836-48.924-39.059-64.307-51.32-94.923-75.665-197.876-158.931-199.86-161.654-.417-.574-.607-1.352-.378-1.639.797-.994 22.717-6.862 26.354-7.061 1.224-.067 9.777 6.586 96.714 75.783 33.703 26.825 98.338 78.489 156.735 125.085a774.905 774.905 0 0137.45-46.15c-6.207-4.9-8.42-6.697-16.896-13.366-30.614-24.088-95.597-75.54-144.378-114.368l-88.644-70.613-.883-12.357c-1.28-18.18-1.235-21.79.126-21.94 1.52-.168 39.563 29.816 268.833 212.72.762-.79 1.501-1.608 2.27-2.395l.504-.505 2.9-2.9c4.093 1.327 8.152 2.772 12.231 4.161-24.423-19.5-56.939-45.429-77.422-61.786l-229.744-183.467-4.413-1.26c-2.401-.66-28.209-8.324-57.373-17.023-74.722-22.289-102.035-30.109-105.414-30.137zm112.98 48.294c2.694-.554 30.065 6.97 44.385 12.231 6.649 2.443 9.85 5.236 10.718 9.205.694 3.173.544 9.292-.378 20.932-.9 11.35-1.616 15.6-3.909 21.94-1.69 4.676-2.386 5.859-6.305 10.97-4.702 6.134-6.59 7.907-13.492 12.358-10.629 6.853-44.736 19.408-48.294 17.779-.911-.417-2.29-2.653-4.917-7.818-2.016-3.961-6.563-12.729-10.088-19.545-7.724-14.934-11.657-23.243-11.348-24.21.125-.394 3.934-2.958 8.322-5.674 10.523-6.514 13.395-8.57 17.527-12.61 5.969-5.834 7.807-9.516 14.627-29.505 1.724-5.055 2.179-5.853 3.152-6.053zm625.3 466.927c-.83 1.011-1.735 1.97-2.647 2.9 1.502 1.2 2.776 2.324 4.287 3.53-.564-2.128-1.13-4.29-1.64-6.43zm-198.22 2.017c1.639 3.14 2.537 6.367 3.027 9.583 13.554 10.874 25.76 20.564 50.438 40.477 72.773 58.72 89.103 71.764 90.031 71.748.929 0 24.883 19.098 133.408 106.423C-417.874 639.1-385.682 664.761-385.141 664.57c.54-.193 31.467 24.53 127.733 102.01l126.977 102.137 14.249-1.26c14.825-1.397 23.68-3.085 32.28-5.927 9.337-3.086 18.347-7.96 24.84-13.619 4.488-3.899 9.573-10.215 12.484-15.51 7.774-14.14 9.42-29.51 6.935-61.28l-.63-9.206-86.249-69.1c-30.919-24.765-131.83-105.296-217.89-174.01a1407.71 1407.71 0 01-10.088 7.818c48.504 38.688 101.577 81.086 131.516 104.91l89.022 70.74 1.01 9.709c.57 5.31 1.703 12.094 2.395 15.131.692 3.037 1.32 6.56 1.387 7.818.125 2.39-.049 3.002-.882 2.9-1.479-.181-31.268-22.861-87.888-67.082-40.462-31.598-121.407-96.426-121.933-97.597-.234-.517-16.514-13.645-36.82-29.632-15.991 11.787-32.277 23.157-48.798 34.172-6.424-3.849-12.704-7.955-18.788-12.357 33.085 26.389 93.296 74.515 119.41 95.327 105.993 84.467 154.556 123.412 154.845 124.202.61 1.672-3.047 2.953-16.897 5.675-5.4 1.06-10.388 2.076-11.096 2.27-1.225.334-2.157-.291-20.301-14.25-10.483-8.063-54.127-42.706-96.84-76.917-42.725-34.198-134.422-107.451-203.769-162.787-61.583-49.14-157.575-125.68-230.248-183.72-16.986-3.551-32.754-11.082-45.898-24.967zm169.976 15.006c-6.049 1.598-12.366 2.482-18.662 2.522-19.267 3.401-40.512 7.684-61.534 9.33 25.757 20.565 43.097 34.47 67.208 53.717 1.234-5.679 3.664-11.172 7.187-15.762 8.888-11.076 17.568-22.365 26.102-33.794-4.306-3.448-13.06-10.296-20.301-16.013zm79.565 139.334c26.687 21.296 59.29 47.31 82.97 66.2-19.035-16.952-34.976-37.197-45.394-60.778-1.739 1.534-3.417 3.146-5.17 4.665-10.966-2.798-21.774-6.207-32.406-10.087zm436.286 239.075c1.618.425 7.835 5.047 27.74 20.175 20.647 15.69 26.32 20.726 28.12 24.714 1.226 2.718 2.046 12.57 1.639 20.806-.392 7.911-2.922 19.219-5.674 25.597-2.732 6.33-10.32 16.613-15.51 21.058-8.351 7.152-19.856 13.095-36.315 18.535l-10.34 3.405-2.143-1.261c-1.191-.692-11.789-8.856-23.58-18.032-20.841-16.215-35.761-28.674-35.937-30.262-.04-.363 2.69-.984 6.053-1.387 11.015-1.319 29.53-8.012 37.702-13.618 11.717-8.04 18.583-16.908 22.445-28.75 2.363-7.248 3.374-14.046 4.16-27.867.392-6.85.909-12.704 1.136-12.987.069-.089.274-.186.504-.125zm-575.801-276.727c-3.128 8.643 13.81 28.212 18.284 40.35 49.811 92.975 107.529 182.025 157.617 274.507 4.613 19.23-19.85 14.949-30.893 19.167-16.257 30.753-9.685 69.52-16.266 103.65-5.48 77.511-20.045 154.921-18.788 232.643 5.436 14.353 29.464 4.656 41.233 8.322 33.605-1.622 70.305 4.405 102.388-4.035 7.849-80.803 2.012-162.768 3.91-243.992 1.506-26.142-8.026-56.425 17.652-73.64 29.417-31.129 51.03-67.253 67.082-105.918-26.669-21.343-41.806-33.4-42.115-33.29-.541.195-32.733-25.469-133.03-106.17-108.524-87.325-132.604-106.566-133.533-106.55-.243 0-1.718-1.05-4.792-3.405-9.476-1.5-19.153-1.876-28.75-1.639zm384.713 56.112c-12.433 6.453-24.205 14.132-35.81 22.319 12.47 9.956 20.071 16.023 31.901 25.471 3.052-16.031 6.51-32.572 3.91-47.79z"
          display="inline"
        ></path>
      </g>
    </svg>